<?xml version="1.0" encoding="utf-8"?>
<svg xmlns="http://www.w3.org/2000/svg" style="margin: auto; background: rgb(241, 242, 243); display: block; shape-rendering: auto;" width="280" height="250" preserveAspectRatio="xMidYMid">
<style type="text/css">
  text {
    text-anchor: middle; font-size: 50px; opacity: 0;
  }
</style>
<g style="transform-origin:140px 125px;transform:scale(1)">
<g transform="translate(140,125)">
  <g transform="translate(0,0)"><g class="path" style="opacity: 1; transform-origin: -80.05px -4.23134px; animation: 2.08333s linear -1.14583s infinite normal forwards running fade-8ab9a19a-c1a3-47b7-b97c-39dce37cb40d;"><path d="M34.45 0.90L34.45 0.90L33.15-3.20L33.15-3.20Q27.35 1 21.95 1L21.95 1L21.95 1Q17.05 1 13.40-0.78L13.40-0.78L13.40-0.78Q9.75-2.55 7.35-5.48L7.35-5.48L7.35-5.48Q4.95-8.40 3.78-12.13L3.78-12.13L3.78-12.13Q2.60-15.85 2.60-19.75L2.60-19.75L2.60-19.75Q2.60-23.70 3.98-27.48L3.98-27.48L3.98-27.48Q5.35-31.25 8.03-34.20L8.03-34.20L8.03-34.20Q10.70-37.15 14.55-38.98L14.55-38.98L14.55-38.98Q18.40-40.80 23.35-40.80L23.35-40.80L23.35-40.80Q30.25-40.80 36.05-37.80L36.05-37.80L36.05-28.20L36.05-28.20Q35.15-28.05 34.45-28.05L34.45-28.05L34.45-28.05Q33.70-28.05 33.20-28.20L33.20-28.20L31.60-36.55L31.60-36.55Q28.40-38.55 22.75-38.55L22.75-38.55L22.75-38.55Q19.60-38.55 17.05-37.13L17.05-37.13L17.05-37.13Q14.50-35.70 12.65-33.27L12.65-33.27L12.65-33.27Q10.80-30.85 9.80-27.58L9.80-27.58L9.80-27.58Q8.80-24.30 8.80-20.60L8.80-20.60L8.80-20.60Q8.80-16.65 9.73-13.30L9.73-13.30L9.73-13.30Q10.65-9.95 12.35-7.50L12.35-7.50L12.35-7.50Q14.05-5.05 16.48-3.68L16.48-3.68L16.48-3.68Q18.90-2.30 21.90-2.30L21.90-2.30L21.90-2.30Q26.75-2.30 31.45-4.95L31.45-4.95L31.45-15.60L27.40-16.10L27.40-16.10Q27.30-16.35 27.30-16.90L27.30-16.90L27.30-16.90Q27.30-17.15 27.30-17.40L27.30-17.40L27.30-17.40Q27.30-17.65 27.40-17.95L27.40-17.95L27.40-17.95Q28.80-17.85 30.48-17.80L30.48-17.80L30.48-17.80Q32.15-17.75 34.25-17.75L34.25-17.75L34.25-17.75Q37.90-17.75 41.15-17.90L41.15-17.90L41.15-17.90Q41.30-17.45 41.30-17L41.30-17L41.30-17Q41.30-16.55 41.15-16.10L41.15-16.10L37-15.50L37-15.50Q36.90-14.55 36.85-13.10L36.85-13.10L36.85-13.10Q36.80-11.65 36.80-9.65L36.80-9.65L36.80-4.60L36.30 0.90L36.30 0.90Q36.10 1 35.90 1L35.90 1L35.90 1Q35.70 1 35.45 1L35.45 1L35.45 1Q35.20 1 34.95 1L34.95 1L34.95 1Q34.70 1 34.45 0.90" fill="#1d0e0b" stroke="none" stroke-width="none" transform="translate(-102,15.668660481770841)" style="fill: rgb(29, 14, 11);"></path></g><g class="path" style="opacity: 1; transform-origin: -40.2px -4.43134px; animation: 2.08333s linear -0.916667s infinite normal forwards running fade-8ab9a19a-c1a3-47b7-b97c-39dce37cb40d;"><path d="M44.90-39.95L44.90-39.95L44.90-39.95Q46.95-39.95 51.43-40.15L51.43-40.15L51.43-40.15Q55.90-40.35 59.55-40.35L59.55-40.35L59.55-40.35Q67.15-40.35 70.40-37.33L70.40-37.33L70.40-37.33Q73.65-34.30 73.65-28.90L73.65-28.90L73.65-28.90Q73.65-25.65 71.40-23.05L71.40-23.05L71.40-23.05Q69.15-20.45 65.50-19.15L65.50-19.15L65.50-19.15Q67.65-15.50 69.53-12.30L69.53-12.30L69.53-12.30Q71.40-9.10 72.25-7.55L72.25-7.55L72.25-7.55Q73.10-6 73.80-4.78L73.80-4.78L73.80-4.78Q74.50-3.55 74.83-3.10L74.83-3.10L74.83-3.10Q75.15-2.65 75.45-2.35L75.45-2.35L79.05-1.85L79.05-1.85Q79.25-1.10 79.05 0L79.05 0L70.55 0L63.00-13.70L63.00-13.70Q61.50-16.55 60.15-18.10L60.15-18.10L59.45-18.10L59.45-18.10Q56.90-18.10 54.30-18.40L54.30-18.40L54.30-2.20L58.85-1.70L58.85-1.70Q59.05-0.95 58.85 0.15L58.85 0.15L58.85 0.15Q55.70 0 51.75 0L51.75 0L51.75 0Q48.80 0 44.60 0.10L44.60 0.10L44.60 0.10Q44.30-0.80 44.60-1.70L44.60-1.70L48.75-2.30L48.75-2.30Q48.95-4.20 48.95-8.15L48.95-8.15L48.95-37.60L44.90-38.10L44.90-38.10Q44.70-38.85 44.90-39.95zM54.30-31.65L54.30-31.65L54.30-20.45L54.30-20.45Q55.85-20.25 58.80-20.25L58.80-20.25L58.80-20.25Q61.35-20.25 63.18-21.08L63.18-21.08L63.18-21.08Q65-21.90 65.90-23.28L65.90-23.28L65.90-23.28Q66.80-24.65 67.20-26.10L67.20-26.10L67.20-26.10Q67.60-27.55 67.60-29.15L67.60-29.15L67.60-29.15Q67.60-33.45 65.45-35.85L65.45-35.85L65.45-35.85Q63.30-38.25 58.30-38.25L58.30-38.25L58.30-38.25Q56.45-38.25 54.60-37.90L54.60-37.90L54.60-37.90Q54.30-35.05 54.30-31.65" fill="#1d0e0b" stroke="none" stroke-width="none" transform="translate(-102,15.668660481770841)" style="fill: rgb(29, 14, 11);"></path></g><g class="path" style="opacity: 1; transform-origin: -14.375px -4.23134px; animation: 2.08333s linear -0.6875s infinite normal forwards running fade-8ab9a19a-c1a3-47b7-b97c-39dce37cb40d;"><path d="M90.30-31.65L90.30-31.65L90.30-2.20L94.35-1.70L94.35-1.70Q94.55-0.95 94.35 0.15L94.35 0.15L94.35 0.15Q91.20 0 87.50 0L87.50 0L87.50 0Q84.80 0 80.60 0.10L80.60 0.10L80.60 0.10Q80.30-0.80 80.60-1.70L80.60-1.70L84.75-2.30L84.75-2.30Q84.95-4.20 84.95-8.15L84.95-8.15L84.95-37.60L80.90-38.10L80.90-38.10Q80.70-38.85 80.90-39.95L80.90-39.95L80.90-39.95Q83.65-39.75 87.75-39.75L87.75-39.75L87.75-39.75Q91.40-39.75 94.65-39.90L94.65-39.90L94.65-39.90Q94.95-39 94.65-38.10L94.65-38.10L90.50-37.50L90.50-37.50Q90.30-35.60 90.30-31.65" fill="#1d0e0b" stroke="none" stroke-width="none" transform="translate(-102,15.668660481770841)" style="fill: rgb(29, 14, 11);"></path></g><g class="path" style="opacity: 1; transform-origin: 13.625px -4.15634px; animation: 2.08333s linear -0.458333s infinite normal forwards running fade-8ab9a19a-c1a3-47b7-b97c-39dce37cb40d;"><path d="M98.30-28.20L98.35-39.80L132.90-39.80L132.95-28.20L132.95-28.20Q131.85-28 131.10-28.20L131.10-28.20L128.75-37.25L118.35-37.25L118.35-2.20L123.40-1.70L123.40-1.70Q123.60-0.95 123.40 0.15L123.40 0.15L123.40 0.15Q120.25 0 115.80 0L115.80 0L115.80 0Q112.35 0 108.15 0.10L108.15 0.10L108.15 0.10Q107.85-0.80 108.15-1.70L108.15-1.70L112.80-2.30L112.80-2.30Q113.00-4.20 113.00-8.15L113.00-8.15L113.00-37.25L102.50-37.25L100.15-28.20L100.15-28.20Q99.40-28 98.30-28.20L98.30-28.20" fill="#1d0e0b" stroke="none" stroke-width="none" transform="translate(-102,15.668660481770841)" style="fill: rgb(29, 14, 11);"></path></g><g class="path" style="opacity: 1; transform-origin: 52.2px -3.80634px; animation: 2.08333s linear -0.229167s infinite normal forwards running fade-8ab9a19a-c1a3-47b7-b97c-39dce37cb40d;"><path d="M166.50-12.70L166.50-12.70L166.50-37.60L162.45-38.10L162.45-39.95L162.45-39.95Q165.20-39.75 167.50-39.75L167.50-39.75L167.50-39.75Q169.40-39.75 172.60-39.90L172.60-39.90L172.60-38.10L169.45-37.50L169.45-37.50Q169.25-35.60 169.25-31.65L169.25-31.65L169.25-13L169.25-13Q169.05-5.90 165.90-2.45L165.90-2.45L165.90-2.45Q162.75 1 154.85 1L154.85 1L154.85 1Q139.95 1 139.95-12.55L139.95-12.55L139.95-37.60L135.90-38.10L135.90-38.10Q135.70-38.85 135.90-39.95L135.90-39.95L135.90-39.95Q138.65-39.75 142.75-39.75L142.75-39.75L142.75-39.75Q146.40-39.75 149.65-39.90L149.65-39.90L149.65-39.90Q149.95-39 149.65-38.10L149.65-38.10L145.50-37.50L145.50-37.50Q145.30-35.60 145.30-31.65L145.30-31.65L145.30-12.55L145.30-12.55Q145.30-6.95 147.90-4.58L147.90-4.58L147.90-4.58Q150.50-2.20 156.50-2.20L156.50-2.20L156.50-2.20Q162.15-2.20 164.33-4.67L164.33-4.67L164.33-4.67Q166.50-7.15 166.50-12.70" fill="#1d0e0b" stroke="none" stroke-width="none" transform="translate(-102,15.668660481770841)" style="fill: rgb(29, 14, 11);"></path></g><g class="path" style="opacity: 1; transform-origin: 89.875px -4.43134px; animation: 2.08333s linear 0s infinite normal forwards running fade-8ab9a19a-c1a3-47b7-b97c-39dce37cb40d;"><path d="M177.60-39.95L177.60-39.95L177.60-39.95Q179.65-39.95 184.13-40.15L184.13-40.15L184.13-40.15Q188.60-40.35 192.25-40.35L192.25-40.35L192.25-40.35Q200-40.35 203.30-37.33L203.30-37.33L203.30-37.33Q206.60-34.30 206.60-28.90L206.60-28.90L206.60-28.90Q206.60-24.10 202.32-20.85L202.32-20.85L202.32-20.85Q198.05-17.60 192.15-17.60L192.15-17.60L192.15-17.60Q189.10-17.60 187-17.90L187-17.90L187-2.20L191.55-1.70L191.55-1.70Q191.75-0.95 191.55 0.15L191.55 0.15L191.55 0.15Q188.40 0 184.45 0L184.45 0L184.45 0Q181.50 0 177.30 0.10L177.30 0.10L177.30 0.10Q177-0.80 177.30-1.70L177.30-1.70L181.45-2.30L181.45-2.30Q181.65-4.20 181.65-8.15L181.65-8.15L181.65-37.60L177.60-38.10L177.60-38.10Q177.40-38.85 177.60-39.95zM187-31.65L187-31.65L187-19.95L187-19.95Q188.55-19.75 191.50-19.75L191.50-19.75L191.50-19.75Q194.10-19.75 195.97-20.63L195.97-20.63L195.97-20.63Q197.85-21.50 198.80-22.98L198.80-22.98L198.80-22.98Q199.75-24.45 200.15-25.95L200.15-25.95L200.15-25.95Q200.55-27.45 200.55-29.15L200.55-29.15L200.55-29.15Q200.55-33.50 198.35-35.88L198.35-35.88L198.35-35.88Q196.15-38.25 191-38.25L191-38.25L191-38.25Q189.15-38.25 187.30-37.90L187.30-37.90L187.30-37.90Q187-35.05 187-31.65" fill="#1d0e0b" stroke="none" stroke-width="none" transform="translate(-102,15.668660481770841)" style="fill: rgb(29, 14, 11);"></path></g></g>
</g>
</g>
<style id="fade-8ab9a19a-c1a3-47b7-b97c-39dce37cb40d" data-anikit="">@keyframes fade-8ab9a19a-c1a3-47b7-b97c-39dce37cb40d
{
  0% {
    animation-timing-function: cubic-bezier(0.2057,0.573,0.3723,0.9184);
    opacity: 1;
  }
  100% {
    opacity: 0;
  }
}</style></svg>